<svg width="100" height="80" viewBox="0 0 100 80" fill="none" xmlns="http://www.w3.org/2000/svg">
<path d="M97.6322 22.3705C105.664 39.3831 91.8023 56.7797 77.8973 69.4524C66.9348 79.4434 52.0149 82.0417 38.2669 76.4748C19.7531 68.9782 -1.87518 57.8359 0.129675 37.9628C2.29156 16.5331 24.5596 4.92878 45.8278 1.52765C66.1481 -1.72189 88.8465 3.76184 97.6322 22.3705Z" fill="#FF2C62"/>
<path d="M38.8166 45.9122V44.1691C38.8166 43.3097 39.1194 42.548 39.7248 41.8839L49.4075 30.8829C49.9446 30.2872 50.7063 29.9845 51.6926 29.9747H56.2776C56.678 29.9747 57.0149 30.1115 57.2883 30.3849C57.5618 30.6583 57.6985 30.9855 57.6985 31.3663V43.1437H59.3098C59.7102 43.1437 60.0471 43.2804 60.3205 43.5538C60.594 43.8273 60.7307 44.1544 60.7307 44.5353V45.9122C60.7307 46.2931 60.5891 46.6202 60.3059 46.8937C60.0227 47.1573 59.6907 47.2892 59.3098 47.2892H57.6985V49.6036C57.6985 49.9845 57.5569 50.3116 57.2737 50.5851C56.9905 50.8488 56.6584 50.9806 56.2776 50.9806H53.553C53.1721 50.9806 52.845 50.8536 52.5715 50.5997C52.3078 50.3361 52.176 50.0138 52.176 49.6329V47.2892H40.2375C39.8567 47.2892 39.5246 47.1573 39.2414 46.8937C38.9582 46.6202 38.8166 46.2931 38.8166 45.9122ZM44.7053 43.1437H52.176V34.6622L44.7053 43.1437Z" fill="white"/>
</svg>
