<svg width="100" height="72" viewBox="0 0 100 72" fill="none" xmlns="http://www.w3.org/2000/svg">
<path d="M58.2419 2.85619C74.4509 4.00842 93.5834 4.96131 98.703 20.3836C104.088 36.6049 91.8462 52.042 77.805 61.7874C63.8403 71.4799 46.277 75.8567 31.9429 66.7194C12.9825 54.6331 -6.48455 34.306 2.0773 13.5148C10.0994 -5.96553 37.2275 1.36236 58.2419 2.85619Z" fill="#FF2C62"/>
<path d="M42.8864 27.1207C42.7692 26.9547 42.7106 26.7594 42.7106 26.5348C42.7106 26.3102 42.8717 26.0612 43.194 25.7877L46.7682 22.7115C47.2858 22.2526 48.0036 22.0182 48.9215 22.0084H51.0749C51.4753 22.0084 51.8122 22.1451 52.0856 22.4186C52.359 22.692 52.4958 23.0192 52.4958 23.4V41.6373C52.4958 42.0182 52.3542 42.3453 52.071 42.6188C51.7878 42.8824 51.4557 43.0143 51.0749 43.0143H48.3503C47.9694 43.0143 47.6422 42.8873 47.3688 42.6334C47.1051 42.3698 46.9733 42.0475 46.9733 41.6666V27.5016L45.2887 28.7321C45.0934 28.8688 44.8688 28.9127 44.6149 28.8639C44.361 28.8151 44.1559 28.7028 43.9997 28.527L42.8864 27.1207Z" fill="white"/>
</svg>
