<svg width="94" height="96" viewBox="0 0 94 96" fill="none" xmlns="http://www.w3.org/2000/svg">
<path d="M68.5794 11.4218C84.0629 35.2985 106.008 67.4328 85.966 87.3486C65.5743 107.612 34.0132 85.8549 11.5463 68.0969C-1.83306 57.5218 -1.88465 38.3876 2.87885 21.676C6.38605 9.37169 18.2014 3.66335 30.4577 1.75045C44.7606 -0.481878 60.5185 -1.00883 68.5794 11.4218Z" fill="#FF2C62"/>
<path d="M39.4011 54.8401V52.7014C39.4011 51.4612 39.655 50.387 40.1628 49.4788C40.6804 48.5706 41.3395 47.8577 42.1403 47.3401C42.9411 46.8225 43.8298 46.3782 44.8063 46.0071C45.7829 45.636 46.7595 45.3381 47.736 45.1135C48.7224 44.8792 49.6159 44.6448 50.4167 44.4104C52.2331 43.8635 53.1413 43.0872 53.1413 42.0813C53.1413 40.9875 52.8581 40.2405 52.2917 39.8401C51.7253 39.4397 50.7683 39.2395 49.4206 39.2395H48.3806C46.4958 39.2395 45.2556 39.8401 44.6599 41.0413C44.2204 41.9592 43.5612 42.4182 42.6823 42.4182H40.9392C40.4606 42.4182 40.0895 42.2473 39.8259 41.9055C39.5622 41.5637 39.4304 41.1926 39.4304 40.7922C39.4304 39.679 39.8552 38.678 40.7048 37.7893C41.5642 36.8909 42.6286 36.217 43.8981 35.7678C45.1677 35.3186 46.4909 35.094 47.8679 35.094H49.8454C54.1325 35.094 56.8474 36.2854 57.9899 38.6682C58.4392 39.6057 58.6638 40.6946 58.6638 41.9348C58.6638 43.175 58.4099 44.2297 57.902 45.0989C57.3942 45.968 56.7399 46.6614 55.9392 47.179C55.1384 47.6868 54.2448 48.1262 53.2585 48.4973C52.2819 48.8684 51.3054 49.176 50.3288 49.4202C49.3522 49.6545 48.4636 49.8792 47.6628 50.094C45.8366 50.6018 44.9235 51.261 44.9235 52.0715H57.0817C57.4821 52.0715 57.8142 52.2083 58.0778 52.4817C58.3513 52.7551 58.488 53.0823 58.488 53.4631V54.8401C58.488 55.2209 58.3464 55.5481 58.0632 55.8215C57.7897 56.0852 57.4626 56.217 57.0817 56.217H40.822C40.4411 56.217 40.1091 56.0852 39.8259 55.8215C39.5427 55.5481 39.4011 55.2209 39.4011 54.8401Z" fill="white"/>
</svg>
