<svg width="243" height="210" viewBox="0 0 243 210" fill="none" xmlns="http://www.w3.org/2000/svg">
<path d="M169.607 2.27398C188.028 8.11039 204.107 33.774 209.107 52.274C219.486 69.0202 243.669 89.9296 242.107 109.774C240.573 129.274 204.356 139.202 191.709 153.99C180.37 167.248 174.471 189.912 158.496 196.463C142.915 202.853 116.123 212.324 99.8849 208.307C84.2513 204.439 74.862 176.098 61.3524 167.239C44.6072 156.259 8.66771 163.678 1.53192 144.685C-5.4741 126.038 18.7239 97.9052 24.7817 78.8021C30.7647 59.9346 23.2665 18.9128 38.8748 7.05801C54.5741 -4.86589 77.8738 14.032 97.2548 11.7982C116.076 9.629 151.578 -3.43848 169.607 2.27398Z" fill="#FF025E"/>
</svg>
