<svg width="566" height="242" viewBox="0 0 566 242" fill="none" xmlns="http://www.w3.org/2000/svg">
<path d="M404.47 42.4711C454.337 68.7984 510.755 39.9796 540.361 76.4711C571.073 114.326 567.97 132.5 559.47 168.5C549.97 195 512.181 196.88 466.97 216.971C424.353 235.909 382.47 246.971 328.47 239.471C283.47 228.971 292.535 212.174 236.47 203.471C174.58 193.864 118.47 226.971 49.4702 203.471C11.9702 182.471 4.44261 175.403 2.18026 135.461C0.253488 101.444 -2.18855 104.501 18.7108 76.4711C39.0797 49.1522 104.629 59.6381 141.97 42.4711C184.34 22.992 212.035 -0.527744 268.97 0.971075C327.403 2.50931 353.611 15.6202 404.47 42.4711Z" fill="#FF025E"/>
</svg>
