<svg width="100" height="100" viewBox="0 0 100 100" fill="none" xmlns="http://www.w3.org/2000/svg">
<path d="M68.3564 9.19968C75.8867 13.7855 80.7812 21.0641 86.0517 28.1322C91.6002 35.573 99.4523 42.3286 99.9704 51.596C100.492 60.9273 94.0192 68.9473 88.7655 76.6768C83.7258 84.0913 78.2121 91.3465 70.2076 95.3839C62.1227 99.4619 52.9218 99.8788 43.8843 99.3145C34.3866 98.7216 24.6135 97.5893 16.8729 92.054C8.85488 86.3203 2.35168 77.8816 0.400913 68.2194C-1.4793 58.9066 3.70732 50.0444 6.5618 40.9827C9.29106 32.3185 10.8483 23.207 16.7542 16.3049C23.1349 8.8479 31.2993 2.04857 41.0219 0.709841C50.6689 -0.61849 60.0392 4.13466 68.3564 9.19968Z" fill="#FF2C62"/>
<path d="M40.591 56.4157C40.591 55.8298 40.7619 55.4147 41.1037 55.1706C41.4455 54.9167 41.7727 54.7897 42.0852 54.7897H43.8284C44.6487 54.7897 45.303 55.239 45.7912 56.1374C46.2795 57.0261 47.3244 57.4704 48.926 57.4704H51.2405C52.4416 57.4704 53.3205 57.28 53.8772 56.8991C54.4436 56.5182 54.7268 55.8688 54.7268 54.9509C54.7268 54.0231 54.4436 53.3737 53.8772 53.0026C53.3205 52.6218 52.4416 52.4313 51.2405 52.4313H42.7151C42.3342 52.4313 42.0071 52.2995 41.7336 52.0358C41.47 51.7722 41.3381 51.4499 41.3381 51.069V41.8698C41.3381 41.4694 41.47 41.1374 41.7336 40.8737C42.0071 40.61 42.3342 40.4782 42.7151 40.4782H57.803C58.2034 40.4782 58.5354 40.61 58.7991 40.8737C59.0627 41.1374 59.1946 41.4694 59.1946 41.8698V43.2468C59.1946 43.6472 59.0627 43.9792 58.7991 44.2429C58.5354 44.4968 58.2034 44.6237 57.803 44.6237H46.8606V48.2858H51.7532C54.5266 48.2858 56.6311 48.8083 58.0666 49.8532C59.5119 50.8884 60.2346 52.5876 60.2346 54.9509C60.2346 57.3044 59.5119 59.0036 58.0666 60.0485C56.6311 61.0837 54.5266 61.6013 51.7532 61.6013H48.4133C46.216 61.6013 44.3606 61.1081 42.8469 60.1218C41.343 59.1257 40.591 57.8903 40.591 56.4157Z" fill="white"/>
</svg>
