<svg width="391" height="355" viewBox="0 0 391 355" fill="none" xmlns="http://www.w3.org/2000/svg">
<path d="M298.76 29.5279C331.584 47.4537 359.74 72.2147 375.547 103.137C391.134 133.629 394.424 168.189 386.168 200.522C378.348 231.145 352.448 253.739 330.757 278.535C308.02 304.527 291.309 337.878 256.156 349.145C220.551 360.557 179.855 351.552 144.744 338.154C112.265 325.76 91.3223 299.791 67.1256 277.01C42.3464 253.68 7.04339 234.502 1.36533 203.163C-4.30838 171.847 26.117 146.092 38.023 116.381C51.0896 83.7748 44.9341 42.4589 74.7565 20.0207C104.902 -2.66091 150.202 0.206457 190.175 1.90299C228.472 3.52838 266.015 11.6457 298.76 29.5279Z" fill="#FF025E"/>
</svg>
