<svg width="421" height="267" viewBox="0 0 421 267" fill="none" xmlns="http://www.w3.org/2000/svg">
<path d="M244.773 0.386702C280.821 3.94516 305.284 28.9712 330.273 52.3867C355.455 75.9829 411.468 83.5568 415.773 115.887C420.003 147.656 426.221 190.175 408.273 217.887C392.181 242.732 317.773 237.887 288.273 246.387C261.881 261.548 247.642 267.715 216.273 266.387C186.071 265.108 161.368 240.842 133.273 230.887C98.449 218.547 28.7926 252.109 8.77292 223.887C-10.8827 196.178 8.02593 165.444 12.2729 132.887C12.2729 97.3867 33.3077 60.8252 57.7729 36.8867C82.3808 12.8086 115.126 36.9471 150.024 27.2554C183.914 17.8434 209.49 -3.09618 244.773 0.386702Z" fill="#FF025E"/>
</svg>
