<svg width="100" height="84" viewBox="0 0 100 84" fill="none" xmlns="http://www.w3.org/2000/svg">
<path d="M95.273 14.0384C108.277 38.6394 92.5762 58.0947 70.9582 75.6153C53.6039 89.6804 39.7402 82.6832 23.1577 69.1856C2.33288 59.9302 -3.96611 51.3084 2.33277 31.0068C7.08079 15.7037 20.1273 12.308 35.8418 9.18032C61.8012 4.01351 82.9038 -9.36229 95.273 14.0384Z" fill="#FF2C62"/>
<path d="M40.0451 47.2791C40.0451 46.6932 40.216 46.2781 40.5578 46.034C40.8996 45.7801 41.2316 45.6531 41.5539 45.6531H43.2824C44.1906 45.6531 44.9035 46.2098 45.4211 47.3231C45.9387 48.4363 47.1301 48.993 48.9953 48.993H51.09C52.2912 48.993 53.1701 48.8221 53.7268 48.4803C54.2834 48.1385 54.5617 47.5574 54.5617 46.7371C54.5617 45.9168 54.2834 45.3358 53.7268 44.994C53.1701 44.6522 52.2912 44.4813 51.09 44.4813H48.4533C48.0725 44.4813 47.7453 44.3494 47.4719 44.0858C47.1984 43.8123 47.0617 43.4852 47.0617 43.1043V41.9031C47.0617 41.5418 47.1936 41.2244 47.4572 40.951C47.7209 40.6678 48.0334 40.5262 48.3947 40.5262H50.548C51.8469 40.5262 52.7893 40.3553 53.3752 40.0135C53.9709 39.6717 54.2688 39.0906 54.2688 38.2703C54.2688 37.45 53.9709 36.8738 53.3752 36.5418C52.7893 36.2 51.8469 36.0291 50.548 36.0291H49.4641C47.5891 36.0291 46.3488 36.6297 45.7434 37.8309C45.3039 38.7488 44.6447 39.2078 43.7658 39.2078H42.0227C41.5539 39.2078 41.1877 39.0369 40.924 38.6951C40.6604 38.3533 40.5285 37.9822 40.5285 37.5818C40.5285 36.4686 40.9533 35.4676 41.8029 34.5789C42.6525 33.6805 43.7121 33.0067 44.9816 32.5574C46.2512 32.1082 47.5744 31.8836 48.9514 31.8836H50.9729C56.8518 31.8836 59.7912 34.0223 59.7912 38.2996C59.7912 40.0867 59.1223 41.4881 57.7844 42.5037C59.3176 43.4705 60.0842 44.8817 60.0842 46.7371C60.0842 48.993 59.3615 50.6238 57.9162 51.6297C56.4807 52.6258 54.3762 53.1238 51.6027 53.1238H48.4826C46.2951 53.1238 44.342 52.5867 42.6232 51.5125C40.9045 50.4285 40.0451 49.0174 40.0451 47.2791Z" fill="white"/>
</svg>
