<svg width="89" height="16" viewBox="0 0 89 16" fill="none" xmlns="http://www.w3.org/2000/svg">
    <path
        d="M71.8902 13.423C67.9772 13.423 65.9821 11.114 64.2211 9.07703C62.5271 7.11703 61.0642 5.42303 58.0652 5.42303C55.0692 5.42303 53.6071 7.11605 51.9151 9.07605C50.1561 11.114 48.1622 13.423 44.2502 13.423C40.3372 13.423 38.3431 11.114 36.5831 9.07703C34.8901 7.11703 33.4271 5.42303 30.4301 5.42303C27.4341 5.42303 25.9711 7.11603 24.2791 9.07703C22.5201 11.114 20.5261 13.423 16.6151 13.423C12.7041 13.423 10.7111 11.114 8.95212 9.07605C7.45943 7.34693 6.14576 5.82561 3.80061 5.49118C3.25385 5.41321 2.80313 4.97532 2.80313 4.42303V4.42303C2.80313 3.87075 3.25286 3.41619 3.8019 3.47597C7.06664 3.83143 8.8635 5.91323 10.4661 7.77005C12.1581 9.73005 13.6201 11.423 16.6151 11.423C19.6111 11.423 21.0731 9.73005 22.7651 7.77005C24.5241 5.73205 26.5181 3.42303 30.4301 3.42303C34.3431 3.42303 36.3371 5.73204 38.0971 7.76904C39.7901 9.73004 41.2532 11.423 44.2502 11.423C47.2462 11.423 48.7092 9.73004 50.4012 7.76904C52.1602 5.73204 54.1542 3.42303 58.0652 3.42303C61.9792 3.42303 63.9741 5.73204 65.7351 7.76904C67.4291 9.73004 68.8922 11.423 71.8902 11.423C74.8892 11.423 76.3521 9.73004 78.0461 7.76904C79.6507 5.91299 81.4495 3.8311 84.7173 3.47588C85.2664 3.4162 85.7161 3.87075 85.7161 4.42303V4.42303C85.7161 4.97532 85.2654 5.41324 84.7186 5.491C82.3697 5.82507 81.0549 7.34672 79.5602 9.07703C77.8002 11.113 75.8042 13.423 71.8902 13.423Z"
        stroke="#BDE0FE" stroke-width="5" />
</svg>