<svg width="199" height="180" viewBox="0 0 199 180" fill="none" xmlns="http://www.w3.org/2000/svg">
<path d="M39.0586 72.301C39.0586 100.549 63.1752 115.602 80.829 129.076C87.0586 133.83 93.0586 138.306 99.0586 138.306C105.059 138.306 111.059 133.83 117.288 129.076C134.942 115.602 159.059 100.549 159.059 72.301C159.059 44.0529 126.057 24.0199 99.0586 51.1773C72.0596 24.0199 39.0586 44.0529 39.0586 72.301Z" fill="#FF025E"/>
<g filter="url(#filter0_d_81_2)">
<path d="M50.2588 75.2687C50.2588 98.3378 69.954 110.631 84.3713 121.635C89.4588 125.517 94.3588 129.173 99.2588 129.173C104.159 129.173 109.059 125.517 114.146 121.635C128.564 110.631 148.259 98.3378 148.259 75.2687C148.259 52.1994 121.308 39.628 99.2588 61.8065C77.2096 39.628 50.2588 52.1994 50.2588 75.2687Z" fill="#FF025E"/>
</g>
<defs>
<filter id="filter0_d_81_2" x="0.258789" y="0.230316" width="198" height="178.943" filterUnits="userSpaceOnUse" color-interpolation-filters="sRGB">
<feFlood flood-opacity="0" result="BackgroundImageFix"/>
<feColorMatrix in="SourceAlpha" type="matrix" values="0 0 0 0 0 0 0 0 0 0 0 0 0 0 0 0 0 0 127 0" result="hardAlpha"/>
<feOffset/>
<feGaussianBlur stdDeviation="25"/>
<feComposite in2="hardAlpha" operator="out"/>
<feColorMatrix type="matrix" values="0 0 0 0 0 0 0 0 0 0 0 0 0 0 0 0 0 0 0.5 0"/>
<feBlend mode="normal" in2="BackgroundImageFix" result="effect1_dropShadow_81_2"/>
<feBlend mode="normal" in="SourceGraphic" in2="effect1_dropShadow_81_2" result="shape"/>
</filter>
</defs>
</svg>
