<svg width="76" height="76" viewBox="0 0 76 76" fill="none" xmlns="http://www.w3.org/2000/svg">
<path d="M38.4276 0.927841C33.503 0.927784 28.6266 1.89774 24.0769 3.78232C19.5272 5.6669 15.3932 8.4292 11.911 11.9115C8.42878 15.3938 5.66657 19.5279 3.78206 24.0777C1.89755 28.6276 0.927645 33.5041 0.927734 38.4288C0.927734 59.1386 17.7166 75.9278 38.4276 75.9278C59.1371 75.9278 75.9277 59.1386 75.9277 38.4288C75.9276 28.483 71.9767 18.9445 64.9441 11.9117C57.9115 4.87898 48.3732 0.927961 38.4276 0.927841ZM29.2409 48.4988C29.2421 48.981 29.1481 49.4587 28.9643 49.9045C28.7806 50.3503 28.5107 50.7555 28.1702 51.0969C27.8296 51.4383 27.425 51.7091 26.9797 51.8939C26.5343 52.0787 26.0568 52.1739 25.5746 52.1739C25.0924 52.1739 24.6149 52.0787 24.1695 51.8939C23.7242 51.7091 23.3196 51.4383 22.979 51.0969C22.6385 50.7555 22.3686 50.3503 22.1849 49.9045C22.0011 49.4587 21.9071 48.981 21.9083 48.4988L21.9083 32.8691C21.9071 32.3869 22.0011 31.9092 22.1849 31.4633C22.3686 31.0175 22.6385 30.6123 22.979 30.2709C23.3196 29.9295 23.7242 29.6587 24.1695 29.4739C24.6149 29.2891 25.0924 29.194 25.5746 29.194C26.0568 29.194 26.5343 29.2891 26.9797 29.4739C27.425 29.6587 27.8296 29.9295 28.1702 30.2709C28.5107 30.6123 28.7806 31.0175 28.9643 31.4633C29.1481 31.9092 29.2421 32.3869 29.2409 32.8691L29.2409 48.4988ZM55.1371 48.2364C55.1371 51.1004 53.4636 52.1262 50.5979 52.1262H37.4145C36.7334 52.1262 36.0589 51.992 35.4296 51.7314C34.8003 51.4707 34.2285 51.0887 33.7468 50.607C33.2652 50.1254 32.8831 49.5535 32.6225 48.9242C32.3618 48.2949 32.2277 47.6204 32.2277 46.9393V33.971C32.2277 33.971 31.9707 31.8144 34.3589 29.7863C36.2882 28.0884 37.8984 26.059 39.1133 23.7942C41.8957 18.5187 43.56 16.9827 44.8302 17.3951C49.5249 18.9148 47.1766 25.8765 45.6623 28.784H49.9501C51.3257 28.7842 52.6448 29.3308 53.6175 30.3035C54.5901 31.2762 55.1367 32.5953 55.1369 33.9709L55.1371 48.2364Z" fill="#FF025E"/>
</svg>
