<svg width="64" height="65" viewBox="0 0 64 65" fill="none" xmlns="http://www.w3.org/2000/svg">
<path d="M64 32.4C64 40.8869 60.6286 49.0263 54.6274 55.0274C48.6263 61.0286 40.4869 64.4 32 64.4C23.5131 64.4 15.3737 61.0286 9.37258 55.0274C3.37142 49.0263 0 40.8869 0 32.4C0 23.9131 3.37142 15.7738 9.37258 9.77259C15.3737 3.77143 23.5131 0.400009 32 0.400009C40.4869 0.400009 48.6263 3.77143 54.6274 9.77259C60.6286 15.7738 64 23.9131 64 32.4ZM33.148 24.024C30.036 25.32 23.812 28 14.484 32.064C12.972 32.664 12.176 33.256 12.104 33.832C11.984 34.804 13.204 35.188 14.864 35.712L15.564 35.932C17.196 36.464 19.396 37.084 20.536 37.108C21.576 37.132 22.732 36.708 24.008 35.828C32.724 29.944 37.224 26.972 37.504 26.908C37.704 26.86 37.984 26.804 38.168 26.972C38.356 27.136 38.336 27.452 38.316 27.536C38.196 28.052 33.408 32.5 30.932 34.804C30.16 35.524 29.612 36.032 29.5 36.148C29.2534 36.4001 29.0027 36.6481 28.748 36.892C27.228 38.356 26.092 39.452 28.808 41.244C30.116 42.108 31.164 42.816 32.208 43.528C33.344 44.304 34.48 45.076 35.952 46.044C36.324 46.284 36.684 46.544 37.032 46.792C38.356 47.736 39.552 48.584 41.02 48.448C41.876 48.368 42.76 47.568 43.208 45.168C44.268 39.5 46.352 27.224 46.832 22.164C46.8613 21.7434 46.8438 21.3208 46.78 20.904C46.7423 20.5677 46.5796 20.2578 46.324 20.036C45.96 19.7848 45.5262 19.6546 45.084 19.664C43.884 19.684 42.032 20.328 33.148 24.024Z" fill="white"/>
</svg>
