<svg width="64" height="65" viewBox="0 0 64 65" fill="none" xmlns="http://www.w3.org/2000/svg">
<path d="M32 0.400009C14.3267 0.400009 0 14.7267 0 32.4C0 50.0733 14.3267 64.4 32 64.4C49.6733 64.4 64 50.0733 64 32.4C64 14.7267 49.6733 0.400009 32 0.400009ZM44.3067 36.5033C44.3067 36.5033 47.1367 39.2967 47.8333 40.5933C47.8533 40.62 47.8633 40.6467 47.87 40.66C48.1533 41.1367 48.22 41.5067 48.08 41.7833C47.8467 42.2433 47.0467 42.47 46.7733 42.49H41.7733C41.4267 42.49 40.7 42.4 39.82 41.7933C39.1433 41.32 38.4767 40.5433 37.8267 39.7867C36.8567 38.66 36.0167 37.6867 35.17 37.6867C35.0625 37.6865 34.9556 37.7034 34.8533 37.7367C34.2133 37.9433 33.3933 38.8567 33.3933 41.29C33.3933 42.05 32.7933 42.4867 32.37 42.4867H30.08C29.3 42.4867 25.2367 42.2133 21.6367 38.4167C17.23 33.7667 13.2633 24.44 13.23 24.3533C12.98 23.75 13.4967 23.4267 14.06 23.4267H19.11C19.7833 23.4267 20.0033 23.8367 20.1567 24.2C20.3367 24.6233 20.9967 26.3067 22.08 28.2C23.8367 31.2867 24.9133 32.54 25.7767 32.54C25.9385 32.5381 26.0975 32.4969 26.24 32.42C27.3667 31.7933 27.1567 27.7767 27.1067 26.9433C27.1067 26.7867 27.1033 25.1467 26.5267 24.36C26.1133 23.79 25.41 23.5733 24.9833 23.4933C25.156 23.255 25.3835 23.0618 25.6467 22.93C26.42 22.5433 27.8133 22.4867 29.1967 22.4867H29.9667C31.4667 22.5067 31.8533 22.6033 32.3967 22.74C33.4967 23.0033 33.52 23.7133 33.4233 26.1433C33.3933 26.8333 33.3633 27.6133 33.3633 28.5333C33.3633 28.7333 33.3533 28.9467 33.3533 29.1733C33.32 30.41 33.28 31.8133 34.1533 32.39C34.2672 32.4614 34.3989 32.4995 34.5333 32.5C34.8367 32.5 35.75 32.5 38.2233 28.2567C38.9861 26.8909 39.649 25.4716 40.2067 24.01C40.2567 23.9233 40.4033 23.6567 40.5767 23.5533C40.7046 23.4881 40.8464 23.455 40.99 23.4567H46.9267C47.5733 23.4567 48.0167 23.5533 48.1 23.8033C48.2467 24.2 48.0733 25.41 45.3633 29.08L44.1533 30.6767C41.6967 33.8967 41.6967 34.06 44.3067 36.5033Z" fill="white"/>
</svg>
