<svg width="64" height="46" viewBox="0 0 64 46" fill="none" xmlns="http://www.w3.org/2000/svg">
<path fill-rule="evenodd" clip-rule="evenodd" d="M25.563 31.2756V13.3177C31.9381 16.3175 36.8755 19.2154 42.7151 22.3396C37.8987 25.0107 31.9381 28.0077 25.563 31.2756ZM61.0912 4.3865C59.9915 2.93767 58.1173 1.80988 56.1219 1.4365C50.2568 0.322739 13.6672 0.319571 7.80529 1.4365C6.20515 1.73647 4.78028 2.46153 3.55626 3.58806C-1.60116 8.37494 0.0149318 34.0454 1.25807 38.2037C1.78082 40.0036 2.45661 41.3016 3.30768 42.1537C4.40419 43.2802 5.90549 44.0558 7.62995 44.4037C12.4591 45.4026 37.3377 45.961 56.0198 44.5537C57.7411 44.2537 59.2647 43.4531 60.4664 42.2787C65.235 37.5109 64.9099 10.3988 61.0912 4.3865Z" fill="white"/>
</svg>
